<svg width="56" height="56" viewBox="0 0 56 56" fill="none" xmlns="http://www.w3.org/2000/svg">
<path d="M47.8334 5.83325H8.16675L11.6667 45.4999L28.0001 50.1666L44.3334 45.4999L47.8334 5.83325Z" fill="#3E4CD0"/>
<path d="M28 9.33325V46.5499L41.0667 42.8166L43.9833 9.33325H28Z" fill="#616EEE"/>
<path d="M38.6167 15.1667H28V19.8334H33.7167L33.3667 24.5001H28V29.1667H33.1333L32.7833 34.4167L28 36.0501V40.9501L37.2167 37.9167L38.0333 24.5001L38.6167 15.1667Z" fill="#151B22"/>
<path d="M27.9999 15.1667V19.8334H17.6166L17.2666 15.1667H27.9999ZM22.6333 24.5001L22.8666 29.1667H27.9999V24.5001H22.6333ZM23.0999 31.5001H18.4333L18.7833 37.9167L27.9999 40.9501V36.0501L23.2166 34.4167L23.0999 31.5001Z" fill="#151B22"/>
</svg>
