<svg width="57" height="57" viewBox="0 0 57 57" fill="none" xmlns="http://www.w3.org/2000/svg">
<path d="M30.875 20.1875H21.375C16.7841 20.1875 13.0625 16.4659 13.0625 11.875C13.0625 7.28413 16.7841 3.5625 21.375 3.5625H30.875V20.1875Z" fill="#616EE6"/>
<path d="M29.6875 36.8125H21.375C16.7841 36.8125 13.0625 33.0909 13.0625 28.5C13.0625 23.9091 16.7841 20.1875 21.375 20.1875H29.6875V36.8125Z" fill="#3E4CD0"/>
<path d="M21.375 53.4375C16.7841 53.4375 13.0625 49.7159 13.0625 45.125C13.0625 40.5341 16.7841 36.8125 21.375 36.8125H29.6875V45.125C29.6875 49.7159 25.9659 53.4375 21.375 53.4375Z" fill="#3E4CD0" fill-opacity="0.58"/>
<path d="M38 20.1875H29.6875V3.5625H38C42.5909 3.5625 46.3125 7.28413 46.3125 11.875C46.3125 16.4659 42.5909 20.1875 38 20.1875Z" fill="#3E4CD0"/>
<path d="M38 36.8125C42.5909 36.8125 46.3125 33.0909 46.3125 28.5C46.3125 23.9091 42.5909 20.1875 38 20.1875C33.4091 20.1875 29.6875 23.9091 29.6875 28.5C29.6875 33.0909 33.4091 36.8125 38 36.8125Z" fill="#3E4CD0"/>
</svg>
