<svg width="29" height="28" viewBox="0 0 29 28" fill="none" xmlns="http://www.w3.org/2000/svg">
<path d="M9.62417 27.069C10.0575 26.8842 10.361 26.4574 10.361 25.9605V22.7004C10.361 22.5814 10.3708 22.4577 10.386 22.3321C10.3775 22.3345 10.3696 22.3363 10.361 22.3381H8.16693C7.25272 22.3381 6.4604 21.9759 6.09472 21.2514C5.66809 20.4665 5.48525 19.1383 4.3882 18.4139C4.20536 18.2931 4.32725 18.112 4.69293 18.112C5.05862 18.1724 5.85093 18.6553 6.33851 19.3195C6.88703 19.9836 7.43556 20.5269 8.41071 20.5269C9.92647 20.5269 10.7389 20.4515 11.2277 20.1918C11.7969 19.3533 12.585 18.7157 13.4084 18.7157V18.7006C9.9539 18.5907 7.747 17.4533 6.71943 15.6971C4.48571 15.7224 2.54089 15.9416 1.43104 16.1239C1.39569 15.9265 1.36522 15.7278 1.33901 15.528C2.43423 15.3493 4.29068 15.1374 6.42505 15.0969C6.35679 14.9303 6.29768 14.7595 6.2477 14.5844C4.10784 14.4769 2.26114 14.5608 1.25795 14.6429C1.24576 14.4425 1.22931 14.2427 1.22687 14.0398C2.23189 13.9583 4.02861 13.8768 6.11361 13.9728C6.06547 13.6709 6.03438 13.3624 6.03438 13.0412C6.03438 12.0149 6.40007 10.9282 7.07049 10.0226C6.76575 8.99622 6.33912 6.82279 7.19238 6.03793C8.83795 6.03793 9.99595 6.82279 10.5445 7.30577C11.58 6.88255 12.738 6.64106 14.0179 6.64106C15.2977 6.64106 16.4557 6.88255 17.4309 7.30517C17.9794 6.82218 19.1374 6.03733 20.783 6.03733C21.6972 6.88255 21.2096 9.05599 20.9049 10.022C21.5753 10.9276 21.941 11.9539 21.88 13.0406C21.88 13.3328 21.8526 13.6148 21.813 13.8913C23.9455 13.7874 25.791 13.8708 26.8131 13.9529C26.8119 14.1563 26.793 14.355 26.782 14.556C25.7636 14.4727 23.8718 14.387 21.6875 14.5023C21.6332 14.7051 21.5674 14.9025 21.4894 15.0939C23.6506 15.1217 25.5515 15.3288 26.6991 15.5099C26.6729 15.7103 26.6425 15.909 26.6071 16.1058C25.4418 15.921 23.4555 15.7049 21.1956 15.694C20.1808 17.4316 18.0142 18.5648 14.6273 18.697V18.7157C16.212 18.7157 17.6747 21.0703 17.6747 22.7004V25.9605C17.6747 26.4574 17.9782 26.8842 18.4115 27.069C23.9949 25.2384 28.0357 20.0222 28.0357 13.8859C28.0357 6.22932 21.7478 0 14.0179 0C6.28792 0 0 6.22932 0 13.8859C0 20.0222 4.0408 25.2384 9.62417 27.069Z" fill="#3E4CD0"/>
</svg>
