<svg width="56" height="56" viewBox="0 0 56 56" fill="none" xmlns="http://www.w3.org/2000/svg">
<path d="M9.3335 5.8335H49.0002L44.3335 45.5002L29.1668 50.1668L12.8335 45.5002L9.3335 5.8335Z" fill="#3E4CD0"/>
<path d="M45.0682 9.3335L41.1248 42.8285L29.1665 46.5035V9.3335H45.0682Z" fill="#616EEE"/>
<path d="M29.1666 24.5L30.3333 26.8333L29.1666 29.1667H18.4216L19.4133 14H29.1666L30.3333 16.3333L29.1666 18.6667H24.535L24.15 24.5H29.1666Z" fill="#151B22"/>
<path d="M29.0499 37.9982L29.1665 37.9632L30.3332 40.8332L29.1665 42.8398L29.0965 42.8632L19.3782 40.0865L18.7249 32.6665H23.4149L23.7415 36.4815L29.0499 37.9982Z" fill="#151B22"/>
<path d="M39.7482 24.5L37.9165 40.1567L29.1665 42.84V37.9633L33.6348 36.5867L34.4982 29.1667H29.1665V24.5H39.7482ZM40.7398 21H36.0848L35.7815 18.6667H29.1665V14H39.8182L40.0165 15.47L40.7398 21Z" fill="#151B22"/>
</svg>
