<svg width="31" height="31" viewBox="0 0 31 31" fill="none" xmlns="http://www.w3.org/2000/svg">
<path d="M21.6032 8.13721C20.8282 8.13721 20.2469 8.71846 20.2469 9.49346C20.2469 10.2685 20.8282 10.8497 21.6032 10.8497C22.3782 10.8497 22.9594 10.2685 22.9594 9.49346C22.9594 8.71846 22.3782 8.13721 21.6032 8.13721ZM15.5 9.88096C12.3032 9.88096 9.78442 12.4966 9.78442 15.5966C9.78442 18.6966 12.4 21.3122 15.5 21.3122C18.6 21.3122 21.2157 18.6966 21.2157 15.5966C21.2157 12.4966 18.6969 9.88096 15.5 9.88096ZM15.5 19.2778C13.4657 19.2778 11.8188 17.631 11.8188 15.5966C11.8188 13.5622 13.4657 11.9153 15.5 11.9153C17.5344 11.9153 19.1813 13.5622 19.1813 15.5966C19.1813 17.631 17.5344 19.2778 15.5 19.2778Z" fill="#3E4CD0"/>
<path d="M20.15 3.875H10.9469C6.975 3.875 3.875 6.975 3.875 10.85V20.0531C3.875 23.9281 6.975 27.0281 10.85 27.0281H20.0531C23.9281 27.0281 27.0281 23.9281 27.0281 20.0531V10.85C27.125 6.975 24.025 3.875 20.15 3.875ZM24.8969 20.15C24.8969 22.7656 22.7656 24.9937 20.0531 24.9937H10.85C8.23437 24.9937 6.00625 22.8625 6.00625 20.15V10.9469C6.00625 8.33125 8.1375 6.10313 10.85 6.10313H20.0531C22.6688 6.10313 24.8969 8.23437 24.8969 10.9469V20.15Z" fill="#3E4CD0"/>
</svg>
