<svg width="27" height="27" viewBox="0 0 27 27" fill="none" xmlns="http://www.w3.org/2000/svg">
<path d="M23.7857 0H3.21429C1.44 0 0 1.44 0 3.21429V23.7857C0 25.56 1.44 27 3.21429 27H23.7857C25.56 27 27 25.56 27 23.7857V3.21429C27 1.44 25.56 0 23.7857 0ZM8.35714 10.2857V22.5H4.5V10.2857H8.35714ZM4.5 6.73071C4.5 5.83071 5.27143 5.14286 6.42857 5.14286C7.58571 5.14286 8.31214 5.83071 8.35714 6.73071C8.35714 7.63071 7.63714 8.35714 6.42857 8.35714C5.27143 8.35714 4.5 7.63071 4.5 6.73071ZM22.5 22.5H18.6429V16.0714C18.6429 14.7857 18 13.5 16.3929 13.4743H16.3414C14.7857 13.4743 14.1429 14.7986 14.1429 16.0714V22.5H10.2857V10.2857H14.1429V11.9314C14.1429 11.9314 15.3836 10.2857 17.8779 10.2857C20.43 10.2857 22.5 12.0407 22.5 15.5957V22.5Z" fill="#3E4CD0"/>
</svg>
