<svg width="490" height="333" viewBox="0 0 490 333" fill="none" xmlns="http://www.w3.org/2000/svg">
<g clip-path="url(#clip0_8_27)">
<path d="M370.108 265.181C368.767 255.691 368.412 246.076 369.051 236.506L370.108 220.667C364.284 232.837 365.6 248.855 370.108 265.181ZM374.65 267.831C374.004 262.168 373.834 256.457 374.141 250.762L374.65 241.334C371.847 248.579 372.481 258.113 374.65 267.831Z" fill="#EBFF08"/>
<path d="M394.836 279.491V284.79C394.834 285.211 394.674 285.614 394.39 285.912C394.107 286.21 393.723 286.378 393.322 286.38H390.799C390.733 286.38 390.667 286.393 390.606 286.42C390.545 286.446 390.489 286.485 390.442 286.535C390.395 286.584 390.358 286.642 390.333 286.707C390.307 286.771 390.294 286.84 390.295 286.91V330.364C390.293 330.785 390.132 331.189 389.849 331.486C389.566 331.784 389.182 331.952 388.781 331.954H358C357.598 331.954 357.214 331.786 356.93 331.488C356.646 331.19 356.486 330.786 356.486 330.364V286.91C356.486 286.77 356.432 286.635 356.338 286.536C356.243 286.436 356.115 286.38 355.981 286.38H352.954C352.552 286.38 352.167 286.212 351.884 285.914C351.6 285.616 351.44 285.212 351.44 284.79V279.491C351.44 279.282 351.479 279.075 351.555 278.882C351.631 278.689 351.742 278.514 351.883 278.366C352.023 278.218 352.19 278.101 352.374 278.022C352.558 277.942 352.755 277.901 352.954 277.901H393.322C393.723 277.902 394.108 278.07 394.391 278.368C394.675 278.666 394.835 279.07 394.836 279.491Z" fill="#3E4CD0"/>
<path d="M356.531 287.493H390.34V289.083H356.531V287.493ZM390.295 310.887C378.982 315.803 367.545 315.858 355.981 310.887V299.686C367.114 295.76 379.163 295.76 390.295 299.686V310.887Z" fill="#323139"/>
<path d="M227.821 132.685C237.964 132.685 246.186 124.05 246.186 113.398C246.186 102.746 237.964 94.1106 227.821 94.1106C217.678 94.1106 209.455 102.746 209.455 113.398C209.455 124.05 217.678 132.685 227.821 132.685Z" fill="black"/>
<path d="M232.938 94.6415C236.116 94.6419 239.24 95.5085 242.004 97.1565C244.768 98.8045 247.077 101.178 248.707 104.044C250.336 106.91 251.229 110.171 251.299 113.508C251.369 116.845 250.613 120.144 249.105 123.082C250.697 120.99 251.857 118.573 252.51 115.984C253.164 113.395 253.296 110.691 252.9 108.046C252.503 105.4 251.586 102.87 250.207 100.617C248.829 98.3641 247.018 96.4375 244.891 94.96C242.763 93.4826 240.367 92.4867 237.853 92.0359C235.339 91.5851 232.763 91.6891 230.29 92.3415C227.816 92.9939 225.499 94.1802 223.486 95.8249C221.474 97.4697 219.809 99.5367 218.599 101.894C220.316 99.6308 222.497 97.8031 224.979 96.5474C227.462 95.2916 230.182 94.6401 232.938 94.6415Z" fill="black"/>
<path d="M193.502 113.357C223.297 113.357 247.451 87.9911 247.451 56.7006C247.451 25.4101 223.297 0.0441895 193.502 0.0441895C163.707 0.0441895 139.553 25.4101 139.553 56.7006C139.553 87.9911 163.707 113.357 193.502 113.357Z" fill="black"/>
<path d="M151.161 21.5479C160.457 10.5688 173.451 3.81207 187.401 2.70371C201.35 1.59534 215.164 6.22208 225.927 15.6074C225.486 15.167 225.05 14.7231 224.591 14.2951C213.897 4.31925 199.867 -0.787862 185.588 0.0966868C171.309 0.981235 157.949 7.78503 148.445 19.0121C138.941 30.2391 134.072 44.9703 134.908 59.9666C135.744 74.963 142.217 88.9967 152.904 98.9822C153.362 99.4102 153.833 99.8134 154.301 100.222C144.165 90.0959 138.172 76.2304 137.586 61.5516C137 46.8728 141.868 32.5292 151.161 21.5479Z" fill="black"/>
<path d="M193.045 112.877C212.235 112.877 227.792 96.5395 227.792 76.3863C227.792 56.2331 212.235 39.8958 193.045 39.8958C173.855 39.8958 158.298 56.2331 158.298 76.3863C158.298 96.5395 173.855 112.877 193.045 112.877Z" fill="#FFB8B8"/>
<path d="M210.795 122.783L173.611 124.538C173.611 124.538 176.715 144.733 156.598 146.654C136.482 148.574 118.194 142.813 110.879 157.217C103.564 171.621 106.717 222.911 106.717 222.911C106.717 222.911 120.432 274.766 131.405 282.448C142.378 290.13 238.388 279.567 238.388 279.567L278.569 226.286L277.208 185.195C276.498 163.737 257.843 147.627 237.751 151.598C237.357 151.676 236.96 151.76 236.56 151.85C236.56 151.85 232.146 148.385 220.035 142.026C212.629 138.137 210.795 122.783 210.795 122.783Z" fill="#3E4CD0"/>
<path d="M130.081 145.694C130.081 145.694 138.918 162.534 135.261 186.541C131.603 210.548 146.95 261.322 146.95 261.322L157.922 258.441C157.922 258.441 150.607 208.506 152.436 196.983C154.265 185.46 154.769 151.455 145.625 145.694C136.482 139.932 130.081 145.694 130.081 145.694ZM235.916 154.523L239.76 260.842L247.075 265.643C247.075 265.643 257.59 148.969 252.104 148.969H240.941C240.28 148.969 239.626 149.106 239.016 149.371C238.405 149.637 237.851 150.026 237.383 150.517C236.916 151.007 236.546 151.59 236.293 152.231C236.04 152.872 235.91 153.559 235.91 154.253C235.91 154.343 235.912 154.433 235.916 154.523Z" fill="#2F2E41"/>
<path d="M151.979 258.921C154.504 258.921 156.551 256.771 156.551 254.12C156.551 251.468 154.504 249.318 151.979 249.318C149.454 249.318 147.407 251.468 147.407 254.12C147.407 256.771 149.454 258.921 151.979 258.921Z" fill="#196B06"/>
<path d="M243.418 263.722C245.943 263.722 247.99 261.573 247.99 258.921C247.99 256.269 245.943 254.12 243.418 254.12C240.893 254.12 238.846 256.269 238.846 258.921C238.846 261.573 240.893 263.722 243.418 263.722Z" fill="#196B06"/>
<path d="M163.327 30.7727V67.2634H171.374L181.615 55.74L180.244 67.2634H215.813L213.619 55.74L218.008 67.2634H223.677V30.7727H163.327Z" fill="black"/>
<path d="M157.841 73.9857C159.356 73.9857 160.584 71.621 160.584 68.7041C160.584 65.7872 159.356 63.4226 157.841 63.4226C156.326 63.4226 155.098 65.7872 155.098 68.7041C155.098 71.621 156.326 73.9857 157.841 73.9857Z" fill="#FFB8B8"/>
<path d="M228.249 73.9857C229.764 73.9857 230.992 71.621 230.992 68.7041C230.992 65.7872 229.764 63.4226 228.249 63.4226C226.734 63.4226 225.506 65.7872 225.506 68.7041C225.506 71.621 226.734 73.9857 228.249 73.9857Z" fill="#FFB8B8"/>
<path d="M304.355 322.436V325.652C304.357 326.535 304.201 327.411 303.896 328.233C303.76 328.6 303.597 328.954 303.406 329.293C302.805 330.353 301.952 331.231 300.93 331.84C299.908 332.45 298.753 332.77 297.578 332.769H72.2456C71.0706 332.77 69.9156 332.45 68.8939 331.84C67.8722 331.231 67.0188 330.353 66.4174 329.293C66.2272 328.954 66.0635 328.6 65.928 328.233C65.6228 327.411 65.4671 326.535 65.4688 325.652V322.436C65.4685 321.501 65.6435 320.576 65.9838 319.713C66.324 318.849 66.8229 318.065 67.4518 317.404C68.0808 316.743 68.8275 316.219 69.6494 315.861C70.4713 315.503 71.3523 315.319 72.242 315.319H85.2342V313.819C85.2342 313.78 85.2414 313.742 85.2555 313.706C85.2696 313.67 85.2904 313.637 85.3165 313.609C85.3427 313.582 85.3738 313.56 85.408 313.545C85.4422 313.53 85.4788 313.522 85.5159 313.522H92.2937C92.3685 313.522 92.4403 313.553 92.4933 313.609C92.5463 313.664 92.5761 313.739 92.5763 313.818V315.319H96.8099V313.819C96.8099 313.78 96.8171 313.742 96.8312 313.706C96.8453 313.67 96.8661 313.637 96.8922 313.609C96.9184 313.582 96.9494 313.56 96.9836 313.545C97.0178 313.53 97.0545 313.522 97.0916 313.522H103.869C103.944 313.522 104.016 313.553 104.069 313.609C104.122 313.664 104.152 313.739 104.152 313.818V315.319H108.391V313.819C108.391 313.78 108.398 313.742 108.412 313.706C108.426 313.67 108.447 313.637 108.473 313.609C108.499 313.582 108.53 313.56 108.564 313.545C108.599 313.53 108.635 313.522 108.672 313.522H115.45C115.525 313.522 115.597 313.553 115.65 313.609C115.703 313.664 115.733 313.739 115.733 313.818V315.319H119.966V313.819C119.966 313.78 119.974 313.742 119.988 313.706C120.002 313.67 120.022 313.637 120.049 313.609C120.075 313.582 120.106 313.56 120.14 313.545C120.174 313.53 120.211 313.522 120.248 313.522H127.026C127.101 313.522 127.172 313.553 127.225 313.609C127.278 313.664 127.308 313.739 127.308 313.818V315.319H131.542V313.819C131.542 313.78 131.549 313.742 131.563 313.706C131.577 313.67 131.598 313.637 131.624 313.609C131.65 313.582 131.682 313.56 131.716 313.545C131.75 313.53 131.787 313.522 131.824 313.522H138.601C138.676 313.522 138.748 313.553 138.801 313.609C138.854 313.664 138.884 313.739 138.884 313.818V315.319H143.123V313.819C143.123 313.78 143.13 313.742 143.144 313.706C143.158 313.67 143.179 313.637 143.205 313.609C143.231 313.582 143.262 313.56 143.296 313.545C143.331 313.53 143.367 313.522 143.404 313.522H150.182C150.257 313.522 150.329 313.553 150.382 313.609C150.435 313.664 150.465 313.739 150.465 313.818V315.319H154.698V313.819C154.698 313.78 154.706 313.742 154.72 313.706C154.734 313.67 154.755 313.637 154.781 313.609C154.807 313.582 154.838 313.56 154.872 313.545C154.906 313.53 154.943 313.522 154.98 313.522H208.066C208.103 313.522 208.14 313.53 208.174 313.545C208.208 313.559 208.239 313.581 208.265 313.609C208.292 313.636 208.312 313.669 208.327 313.705C208.341 313.741 208.348 313.779 208.348 313.818V315.319H212.587V313.819C212.587 313.78 212.594 313.742 212.608 313.706C212.622 313.67 212.643 313.637 212.669 313.609C212.696 313.582 212.727 313.56 212.761 313.545C212.795 313.53 212.832 313.522 212.869 313.522H219.646C219.721 313.523 219.793 313.555 219.846 313.61C219.898 313.666 219.928 313.741 219.929 313.819V315.319H224.163V313.819C224.163 313.78 224.17 313.742 224.184 313.706C224.198 313.67 224.219 313.637 224.245 313.609C224.271 313.582 224.302 313.56 224.336 313.545C224.371 313.53 224.407 313.522 224.444 313.522H231.222C231.259 313.522 231.296 313.53 231.33 313.545C231.364 313.559 231.396 313.581 231.422 313.609C231.448 313.636 231.469 313.669 231.483 313.705C231.497 313.741 231.505 313.779 231.505 313.818V315.319H235.738V313.819C235.738 313.78 235.746 313.742 235.76 313.706C235.774 313.67 235.795 313.637 235.821 313.609C235.847 313.582 235.878 313.56 235.912 313.545C235.946 313.53 235.983 313.522 236.02 313.522H242.798C242.835 313.522 242.872 313.53 242.906 313.545C242.94 313.559 242.971 313.581 242.998 313.609C243.024 313.636 243.045 313.669 243.059 313.705C243.073 313.741 243.08 313.779 243.08 313.818V315.319H247.319V313.819C247.319 313.78 247.326 313.742 247.34 313.706C247.355 313.67 247.375 313.637 247.401 313.609C247.428 313.582 247.459 313.56 247.493 313.545C247.527 313.53 247.564 313.522 247.601 313.522H254.379C254.453 313.523 254.524 313.555 254.576 313.611C254.628 313.666 254.657 313.741 254.656 313.819V315.319H258.895V313.819C258.895 313.78 258.902 313.742 258.916 313.706C258.93 313.67 258.951 313.637 258.977 313.609C259.003 313.582 259.034 313.56 259.069 313.545C259.103 313.53 259.139 313.522 259.177 313.522H265.954C265.991 313.522 266.028 313.53 266.062 313.545C266.097 313.559 266.128 313.581 266.154 313.609C266.18 313.636 266.201 313.669 266.215 313.705C266.229 313.741 266.237 313.779 266.237 313.818V315.319H270.471V313.819C270.47 313.78 270.478 313.742 270.492 313.706C270.506 313.67 270.527 313.637 270.553 313.609C270.579 313.582 270.61 313.56 270.644 313.545C270.678 313.53 270.715 313.522 270.752 313.522H277.53C277.567 313.522 277.604 313.53 277.638 313.545C277.672 313.559 277.703 313.581 277.73 313.609C277.756 313.636 277.777 313.669 277.791 313.705C277.805 313.741 277.813 313.779 277.813 313.818V315.319H297.578C299.375 315.318 301.098 316.067 302.369 317.401C303.64 318.735 304.354 320.545 304.355 322.432L304.355 322.436Z" fill="#323139"/>
<path d="M0 331.94H490V333H0V331.94ZM286.21 186.967H79.804C79.058 186.967 78.3192 187.121 77.6299 187.421C76.9407 187.721 76.3144 188.16 75.7868 188.714C75.2593 189.268 74.8408 189.926 74.5553 190.65C74.2698 191.374 74.1228 192.149 74.1228 192.933V313.711C74.1228 315.293 74.7214 316.811 75.7868 317.929C76.8522 319.048 78.2973 319.677 79.804 319.677H286.21C287.717 319.677 289.162 319.048 290.228 317.929C291.293 316.811 291.892 315.293 291.892 313.711V192.933C291.892 191.35 291.293 189.833 290.228 188.714C289.162 187.595 287.717 186.967 286.21 186.967Z" fill="#323139"/>
</g>
<defs>
<clipPath id="clip0_8_27">
<rect width="490" height="333" fill="white"/>
</clipPath>
</defs>
</svg>
