<svg width="59" height="59" viewBox="0 0 59 59" fill="none" xmlns="http://www.w3.org/2000/svg">
<path d="M29.5578 6.14584C27.6464 6.15199 26.3214 6.32038 24.7198 6.59695C19.99 7.42049 19.1283 9.14992 19.1283 12.3372V17.2083H30.1908V19.6667H13.3611C10.121 19.6667 7.28529 21.1933 6.38677 24.8525C5.37148 29.0526 5.326 31.683 6.38677 36.0687C7.19188 39.3395 8.96556 41.7917 12.2069 41.7917H16.6712V35.518C16.6712 31.8723 19.9728 28.2708 23.7561 28.2708H32.6504C35.7516 28.2708 38.7962 25.9821 38.7962 22.8908V12.3372C38.7962 9.33922 36.6341 7.09722 33.6116 6.59449C33.6866 6.58711 31.4532 6.13847 29.5578 6.14584ZM23.4316 11.0625C24.4408 11.0625 25.2754 11.8947 25.2754 12.9087C25.2754 13.9326 24.4408 14.75 23.4316 14.75C22.4028 14.75 21.5879 13.9338 21.5879 12.9087C21.5879 11.8983 22.4028 11.0625 23.4316 11.0625Z" fill="url(#paint0_linear_15_29)"/>
<path d="M28.3666 52.8541C30.2779 52.8479 31.603 52.6795 33.2046 52.403C37.9344 51.5794 38.7961 49.85 38.7961 46.6628V41.7916H27.7336V39.3333H44.5646C47.8046 39.3333 50.6403 37.8066 51.5388 34.1474C52.5541 29.9473 52.5996 27.3169 51.5388 22.9313C50.7325 19.6604 48.9588 17.2083 45.7175 17.2083H41.2532V23.4819C41.2532 27.1276 37.9516 30.7291 34.1683 30.7291H25.274C22.1728 30.7291 19.1282 33.0178 19.1282 36.1092V46.6628C19.1282 49.6607 21.2903 51.9027 24.3128 52.4054C24.2378 52.4128 26.4712 52.8615 28.3666 52.8541ZM34.494 47.9374C33.4848 47.9374 32.6502 47.1053 32.6502 46.0912C32.6502 45.0673 33.4848 44.2499 34.494 44.2499C35.5228 44.2499 36.3377 45.0661 36.3377 46.0912C36.3377 47.1016 35.5216 47.9374 34.494 47.9374Z" fill="url(#paint1_linear_15_29)"/>
<defs>
<linearGradient id="paint0_linear_15_29" x1="12.8546" y1="15.9448" x2="32.3443" y2="32.2988" gradientUnits="userSpaceOnUse">
<stop stop-color="#3E4CD0"/>
<stop offset="1" stop-color="#3E4CD0"/>
</linearGradient>
<linearGradient id="paint1_linear_15_29" x1="43.4313" y1="46.5989" x2="28.9062" y2="25.8542" gradientUnits="userSpaceOnUse">
<stop stop-color="#3E4CD0"/>
<stop offset="1" stop-color="#3E4CD0"/>
</linearGradient>
</defs>
</svg>
