<svg width="47" height="47" viewBox="0 0 47 47" fill="none" xmlns="http://www.w3.org/2000/svg">
<g clip-path="url(#clip0_15_49)">
<path d="M20.7103 46.9701C16.3109 46.653 11.9626 45.5456 9.2958 44.0631C7.77681 43.2187 6.61956 42.181 6.16545 41.2561L5.89526 40.7058V6.18349L6.10907 5.74941C7.06449 3.80965 10.1137 2.06092 14.3702 1.01167C15.8151 0.655482 17.901 0.300766 19.6026 0.121898C21.3403 -0.0607981 25.9461 -0.033001 27.6794 0.170912C32.2862 0.71215 36.2063 1.92388 38.6221 3.55337C39.5538 4.18176 40.5098 5.18722 40.8336 5.87933L41.1113 6.47274L41.0875 23.6817L41.0638 40.8907L40.8409 41.3435C40.7183 41.5925 40.348 42.0825 40.018 42.4323C38.0092 44.5617 33.7004 46.137 28.0487 46.8081C26.8967 46.945 21.8922 47.0553 20.7103 46.9701ZM28.8178 32.1796C28.8009 32.1355 28.1432 31.5496 27.3563 30.8776C26.5694 30.2056 25.8917 29.6241 25.8502 29.5855C25.8088 29.5469 25.9542 29.4102 26.1733 29.2818C26.3924 29.1533 26.8123 28.796 27.1063 28.4877C27.966 27.5862 28.3717 26.4726 28.3717 25.0138C28.3717 23.5778 27.9342 22.4191 27.0579 21.5346C26.1747 20.6431 25.1607 20.2601 23.6841 20.2601C21.4079 20.2601 19.6597 21.5882 19.1018 23.7415C18.9098 24.4821 18.9109 25.9788 19.1038 26.6355C19.607 28.3485 20.9774 29.5927 22.6829 29.8848C23.2601 29.9837 23.3383 30.0263 23.7318 30.4565C23.9656 30.7122 24.4455 31.2225 24.7982 31.5906L25.4394 32.2598H27.144C28.0815 32.2598 28.8347 32.2238 28.8178 32.1796ZM22.972 27.4068C22.5616 27.1928 22.4065 27.0268 22.1725 26.5511C21.9917 26.1836 21.9608 25.9746 21.9588 25.1062C21.9568 24.2237 21.9849 24.033 22.1736 23.6498C22.4823 23.0228 22.9078 22.7259 23.566 22.6783C24.4822 22.6119 25.011 23.0615 25.2882 24.1421C25.628 25.467 25.2544 26.8756 24.439 27.343C24.0113 27.5883 23.3732 27.616 22.972 27.4068ZM15.4163 29.866C17.2035 29.5271 18.2181 28.4877 18.2181 26.9957C18.2181 25.6721 17.5631 24.9008 15.7528 24.0927C14.7166 23.6301 14.3412 23.3397 14.3412 23.0004C14.3412 22.7192 14.6974 22.4111 15.1121 22.3337C15.517 22.2581 16.5908 22.4446 17.225 22.7008L17.7565 22.9155V20.5622L17.1796 20.4342C16.8231 20.3551 16.0739 20.3077 15.2181 20.3101C14.006 20.3101 13.7686 20.3396 13.3125 20.5208C11.9801 21.0497 11.3478 21.9508 11.3579 23.3062C11.3674 24.5751 12.0368 25.3666 13.7027 26.0786C14.6857 26.4987 15.0797 26.8186 15.0797 27.1967C15.0797 28 13.7411 28.0989 12.3239 27.4002C11.9358 27.2089 11.5871 27.0367 11.549 27.0177C11.5109 26.9986 11.4798 27.5483 11.4798 28.2391C11.4798 29.4896 11.4811 29.4956 11.7075 29.5818C12.5601 29.9059 14.4444 30.0504 15.4163 29.866ZM35.8484 28.706V27.6445H32.6177V20.3524H29.7563V29.7676H35.8484V28.706ZM25.8794 10.1041C28.7226 9.90689 30.8538 9.53459 32.7292 8.90754C34.5975 8.28284 35.7012 7.52695 35.9481 6.70297C36.0432 6.38545 36.0364 6.265 35.9035 5.91686C35.3074 4.35613 31.9777 3.15702 26.8896 2.67084C24.7131 2.46283 20.7549 2.53024 18.6797 2.81057C15.5132 3.2384 12.9435 4.0331 11.8009 4.93785C9.48947 6.76817 11.9338 8.78124 17.6181 9.72876C20.0828 10.1396 23.276 10.2847 25.8794 10.1041Z" fill="#3E4CD0"/>
</g>
<defs>
<clipPath id="clip0_15_49">
<rect width="47" height="47" fill="white"/>
</clipPath>
</defs>
</svg>
